<svg width="287" height="88" viewBox="0 0 287 88" fill="none" xmlns="http://www.w3.org/2000/svg">
<path d="M149 10H105C103.939 10 102.922 10.4214 102.172 11.1716C101.421 11.9217 101 12.9391 101 14V50C101 51.0609 101.421 52.0783 102.172 52.8284C102.922 53.5786 103.939 54 105 54H149C150.061 54 151.078 53.5786 151.828 52.8284C152.579 52.0783 153 51.0609 153 50V14C153 12.9391 152.579 11.9217 151.828 11.1716C151.078 10.4214 150.061 10 149 10ZM127 40C123.818 39.9967 120.768 38.7313 118.518 36.4816C116.269 34.2319 115.003 31.1816 115 28C115 27.4696 115.211 26.9609 115.586 26.5858C115.961 26.2107 116.47 26 117 26C117.53 26 118.039 26.2107 118.414 26.5858C118.789 26.9609 119 27.4696 119 28C119 30.1217 119.843 32.1566 121.343 33.6569C122.843 35.1571 124.878 36 127 36C129.122 36 131.157 35.1571 132.657 33.6569C134.157 32.1566 135 30.1217 135 28C135 27.4696 135.211 26.9609 135.586 26.5858C135.961 26.2107 136.47 26 137 26C137.53 26 138.039 26.2107 138.414 26.5858C138.789 26.9609 139 27.4696 139 28C138.997 31.1816 137.731 34.2319 135.482 36.4816C133.232 38.7313 130.182 39.9967 127 40ZM105 18V14H149V18H105Z" fill="#E0C7AE"/>
<path d="M129.387 67.1067C128.853 66.6952 128.23 66.4125 127.568 66.2807C126.906 66.1489 126.223 66.1714 125.571 66.3467L118.053 68.0753C118.228 67.3364 118.233 66.5675 118.069 65.8262C117.904 65.0849 117.574 64.3905 117.103 63.795C116.632 63.1995 116.032 62.7183 115.349 62.3875C114.665 62.0567 113.916 61.8849 113.156 61.885H104.161C103.406 61.8831 102.657 62.031 101.959 62.3199C101.261 62.6089 100.628 63.0334 100.095 63.5687L96.0302 67.635H90.875C90.1125 67.635 89.3812 67.9379 88.8421 68.4771C88.3029 69.0163 88 69.7475 88 70.51V77.6975C88 78.46 88.3029 79.1913 88.8421 79.7305C89.3812 80.2696 90.1125 80.5725 90.875 80.5725H109.562C109.68 80.5726 109.797 80.5581 109.911 80.5294L121.411 77.6544C121.485 77.6367 121.557 77.6126 121.627 77.5825L128.609 74.6105L128.688 74.5746C129.36 74.2391 129.935 73.7383 130.359 73.1194C130.783 72.5004 131.043 71.7836 131.113 71.0366C131.184 70.2895 131.063 69.5367 130.763 68.8492C130.462 68.1617 129.991 67.562 129.395 67.1067H129.387ZM127.429 71.9853L120.601 74.8926L109.383 77.6975H98.0625V69.6673L102.129 65.6028C102.395 65.3346 102.711 65.1221 103.06 64.9774C103.409 64.8327 103.783 64.7588 104.161 64.76H113.156C113.728 64.76 114.277 64.9872 114.681 65.3916C115.085 65.796 115.312 66.3444 115.312 66.9163C115.312 67.4882 115.085 68.0366 114.681 68.441C114.277 68.8453 113.728 69.0725 113.156 69.0725H108.125C107.744 69.0725 107.378 69.224 107.109 69.4936C106.839 69.7631 106.688 70.1288 106.688 70.51C106.688 70.8913 106.839 71.2569 107.109 71.5265C107.378 71.7961 107.744 71.9475 108.125 71.9475H113.875C113.983 71.9472 114.091 71.9352 114.197 71.9116L126.236 69.1426L126.291 69.1282C126.659 69.0262 127.051 69.0637 127.393 69.2335C127.734 69.4033 128.001 69.6934 128.141 70.048C128.282 70.4026 128.286 70.7966 128.154 71.1543C128.021 71.5119 127.761 71.8079 127.423 71.9853H127.429Z" fill="#C39465"/>
</svg>
