<svg width="287" height="88" viewBox="0 0 287 88" fill="none" xmlns="http://www.w3.org/2000/svg">
<path d="M139 7.5C130.38 7.5 122.114 10.9241 116.019 17.019C109.924 23.114 106.5 31.3805 106.5 40C106.5 48.6195 109.924 56.886 116.019 62.981C122.114 69.0759 130.38 72.5 139 72.5C139.515 72.4972 140.017 72.3353 140.437 72.0363C140.857 71.7373 141.174 71.3159 141.345 70.8298C141.516 70.3437 141.532 69.8166 141.392 69.3207C141.252 68.8248 140.963 68.3842 140.562 68.0594C140.213 67.775 134.038 62.6469 130.856 52.5063H138.981C139.644 52.5063 140.28 52.2429 140.749 51.774C141.218 51.3052 141.481 50.6693 141.481 50.0063C141.481 49.3432 141.218 48.7073 140.749 48.2385C140.28 47.7696 139.644 47.5063 138.981 47.5063H129.65C128.788 42.5434 128.788 37.4691 129.65 32.5062H148.363C148.793 34.9808 149.006 37.4883 149 40C149 40.663 149.263 41.2989 149.732 41.7678C150.201 42.2366 150.837 42.5 151.5 42.5C152.163 42.5 152.799 42.2366 153.268 41.7678C153.737 41.2989 154 40.663 154 40C154.003 37.4889 153.811 34.9813 153.425 32.5H165.459C166.152 34.9397 166.502 37.4639 166.5 40C166.5 40.663 166.763 41.2989 167.232 41.7678C167.701 42.2366 168.337 42.5 169 42.5C169.663 42.5 170.299 42.2366 170.768 41.7678C171.237 41.2989 171.5 40.663 171.5 40C171.491 31.3833 168.064 23.122 161.971 17.0291C155.878 10.9361 147.617 7.5091 139 7.5ZM130.875 27.5C132.476 22.2544 135.255 17.4443 139 13.4375C142.744 17.4454 145.522 22.2551 147.125 27.5H130.875ZM152.359 27.5C150.956 22.3528 148.592 17.5177 145.391 13.25C149.261 14.1775 152.884 15.9313 156.013 18.391C159.142 20.8507 161.701 23.9581 163.516 27.5H152.359Z" fill="#F81740"/>
<path d="M161.875 67.51C161.875 67.8808 161.765 68.2434 161.559 68.5517C161.353 68.86 161.06 69.1004 160.718 69.2423C160.375 69.3842 159.998 69.4213 159.634 69.349C159.27 69.2766 158.936 69.0981 158.674 68.8358C158.412 68.5736 158.233 68.2395 158.161 67.8758C158.089 67.5121 158.126 67.1351 158.268 66.7925C158.41 66.4499 158.65 66.157 158.958 65.951C159.267 65.745 159.629 65.635 160 65.635C160.497 65.635 160.974 65.8326 161.326 66.1842C161.677 66.5358 161.875 67.0127 161.875 67.51ZM160 63.76C160.298 63.76 160.585 63.6415 160.795 63.4305C161.006 63.2195 161.125 62.9334 161.125 62.635V53.26C161.125 52.9616 161.006 52.6755 160.795 52.4645C160.585 52.2535 160.298 52.135 160 52.135C159.702 52.135 159.415 52.2535 159.205 52.4645C158.994 52.6755 158.875 52.9616 158.875 53.26V62.635C158.875 62.9334 158.994 63.2195 159.205 63.4305C159.415 63.6415 159.702 63.76 160 63.76Z" fill="#F81740"/>
<path d="M182.592 80.1681L173.688 71.26C176.358 67.7809 177.604 63.4165 177.174 59.0521C176.745 54.6878 174.671 50.6503 171.374 47.7587C168.077 44.8671 163.803 43.338 159.42 43.4814C155.037 43.6249 150.872 45.4302 147.771 48.5312C144.67 51.6322 142.865 55.7966 142.722 60.1797C142.578 64.5628 144.107 68.8364 146.999 72.1335C149.891 75.4306 153.928 77.5043 158.292 77.934C162.657 78.3638 167.021 77.1173 170.5 74.4475L179.412 83.3612C179.621 83.5705 179.87 83.7366 180.143 83.8498C180.417 83.9631 180.71 84.0214 181.006 84.0214C181.302 84.0214 181.595 83.9631 181.868 83.8498C182.142 83.7366 182.39 83.5705 182.6 83.3612C182.809 83.1519 182.975 82.9035 183.088 82.63C183.201 82.3566 183.26 82.0635 183.26 81.7675C183.26 81.4715 183.201 81.1784 183.088 80.905C182.975 80.6315 182.809 80.383 182.6 80.1737L182.592 80.1681ZM147.25 60.76C147.25 58.2383 147.998 55.7732 149.399 53.6765C150.8 51.5797 152.791 49.9455 155.121 48.9805C157.451 48.0155 160.014 47.763 162.488 48.255C164.961 48.7469 167.233 49.9613 169.016 51.7444C170.799 53.5275 172.013 55.7993 172.505 58.2726C172.997 60.7459 172.745 63.3095 171.78 65.6392C170.815 67.969 169.18 69.9602 167.084 71.3612C164.987 72.7622 162.522 73.51 160 73.51C156.62 73.5065 153.379 72.1621 150.988 69.7718C148.598 67.3814 147.254 64.1404 147.25 60.76Z" fill="#F81740"/>
</svg>
