<svg width="287" height="89" viewBox="0 0 287 89" fill="none" xmlns="http://www.w3.org/2000/svg">
<rect width="64" height="64" transform="translate(112)" fill="#121118"/>
<path d="M156 51.8099C157.379 51.2663 158.717 50.6204 160 49.8774V59.9999C160 60.5303 159.789 61.0391 159.414 61.4141C159.039 61.7892 158.53 61.9999 158 61.9999C157.469 61.9999 156.961 61.7892 156.586 61.4141C156.211 61.0391 156 60.5303 156 59.9999V51.8099ZM158.94 29.7024L144.94 22.2349C144.473 21.9963 143.931 21.9508 143.43 22.1081C142.93 22.2654 142.511 22.6129 142.265 23.0759C142.018 23.5388 141.963 24.0801 142.112 24.5831C142.261 25.086 142.601 25.5105 143.06 25.7649L154.75 31.9999L159 29.7349L158.94 29.7024ZM174.94 22.2349L144.94 6.23491C144.65 6.08083 144.328 6.00024 144 6.00024C143.672 6.00024 143.349 6.08083 143.06 6.23491L113.06 22.2349C112.74 22.4054 112.472 22.6598 112.286 22.9707C112.099 23.2815 112 23.6373 112 23.9999C112 24.3625 112.099 24.7183 112.286 25.0292C112.472 25.3401 112.74 25.5944 113.06 25.7649L120 29.4674V41.5724C119.998 42.5548 120.359 43.5032 121.015 44.2349C124.29 47.8824 131.627 53.9999 144 53.9999C148.102 54.0338 152.174 53.2908 156 51.8099V32.6674L154.75 31.9999L144 37.7324L122.957 26.4999L118.25 23.9999L144 10.2674L169.75 23.9999L165.055 26.4999H165.04L159 29.7349C159.304 29.9105 159.556 30.163 159.732 30.4672C159.908 30.7713 160 31.1163 160 31.4674V49.8774C162.608 48.3719 164.965 46.4681 166.985 44.2349C167.64 43.5032 168.002 42.5548 168 41.5724V29.4674L174.94 25.7649C175.26 25.5944 175.527 25.3401 175.714 25.0292C175.901 24.7183 175.999 24.3625 175.999 23.9999C175.999 23.6373 175.901 23.2815 175.714 22.9707C175.527 22.6598 175.26 22.4054 174.94 22.2349Z" fill="#C39465"/>
<path d="M145.887 67.3467C145.353 66.9352 144.73 66.6525 144.068 66.5207C143.406 66.3888 142.723 66.4114 142.071 66.5867L134.553 68.3152C134.728 67.5764 134.733 66.8075 134.569 66.0662C134.404 65.3249 134.074 64.6305 133.603 64.035C133.132 63.4394 132.532 62.9583 131.849 62.6275C131.165 62.2967 130.416 62.1249 129.656 62.125H120.661C119.906 62.1231 119.157 62.2709 118.459 62.5599C117.761 62.8489 117.128 63.2733 116.595 63.8087L112.53 67.875H107.375C106.613 67.875 105.881 68.1779 105.342 68.7171C104.803 69.2563 104.5 69.9875 104.5 70.75V77.9375C104.5 78.7 104.803 79.4313 105.342 79.9704C105.881 80.5096 106.613 80.8125 107.375 80.8125H126.062C126.18 80.8126 126.297 80.7981 126.411 80.7694L137.911 77.8944C137.985 77.8767 138.057 77.8526 138.127 77.8225L145.109 74.8505L145.188 74.8145C145.86 74.4791 146.435 73.9783 146.859 73.3594C147.283 72.7404 147.543 72.0236 147.613 71.2765C147.684 70.5295 147.563 69.7767 147.263 69.0892C146.962 68.4017 146.491 67.802 145.895 67.3467H145.887ZM143.929 72.2253L137.101 75.1326L125.883 77.9375H114.562V69.9073L118.629 65.8428C118.895 65.5746 119.211 65.362 119.56 65.2174C119.909 65.0727 120.283 64.9988 120.661 65H129.656C130.228 65 130.777 65.2272 131.181 65.6316C131.585 66.0359 131.812 66.5844 131.812 67.1563C131.812 67.7281 131.585 68.2766 131.181 68.681C130.777 69.0853 130.228 69.3125 129.656 69.3125H124.625C124.244 69.3125 123.878 69.464 123.609 69.7335C123.339 70.0031 123.188 70.3688 123.188 70.75C123.188 71.1313 123.339 71.4969 123.609 71.7665C123.878 72.0361 124.244 72.1875 124.625 72.1875H130.375C130.483 72.1872 130.591 72.1752 130.697 72.1516L142.736 69.3826L142.791 69.3682C143.159 69.2662 143.551 69.3037 143.893 69.4735C144.234 69.6433 144.501 69.9334 144.641 70.288C144.782 70.6426 144.786 71.0366 144.654 71.3942C144.521 71.7519 144.261 72.0479 143.923 72.2253H143.929Z" fill="#C39465"/>
</svg>
